<svg width="30" height="30" viewBox="0 0 30 30" fill="none" xmlns="http://www.w3.org/2000/svg">
<g id="&#236;&#185;&#180;&#235;&#169;&#148;&#235;&#157;&#188;" clip-path="url(#clip0)">
<path id="Vector" fill-rule="evenodd" clip-rule="evenodd" d="M21.2288 2.5L22.9863 5.13625C23.45 5.8325 24.23 6.25 25.0663 6.25H29.9788V27.5H-0.0212402V6.25H7.39126C8.22751 6.25 9.00751 5.8325 9.47126 5.13625L11.2288 2.5H21.2288ZM25.0663 7.5C23.8088 7.5 22.6438 6.875 21.9463 5.82875L20.56 3.75H11.8975L10.5113 5.83C9.81501 6.875 8.64876 7.5 7.39126 7.5H1.22876V26.25H28.7288V7.5H25.0663ZM16.25 8.75C20.3888 8.75 23.75 12.1112 23.75 16.25C23.75 20.3888 20.3888 23.75 16.25 23.75C12.1113 23.75 8.75001 20.3888 8.75001 16.25C8.75001 12.1112 12.1113 8.75 16.25 8.75ZM16.25 10C19.7 10 22.5 12.8 22.5 16.25C22.5 19.7 19.7 22.5 16.25 22.5C12.8 22.5 10 19.7 10 16.25C10 12.8 12.8 10 16.25 10ZM16.25 12.5C18.32 12.5 20 14.18 20 16.25C20 18.32 18.32 20 16.25 20C14.18 20 12.5 18.32 12.5 16.25C12.5 14.18 14.18 12.5 16.25 12.5ZM16.25 13.75C17.63 13.75 18.75 14.87 18.75 16.25C18.75 17.63 17.63 18.75 16.25 18.75C14.87 18.75 13.75 17.63 13.75 16.25C13.75 14.87 14.87 13.75 16.25 13.75ZM6.25001 11.25C6.25001 10.56 5.69126 10 5.00001 10C4.30876 10 3.75001 10.56 3.75001 11.25C3.75001 11.94 4.30876 12.5 5.00001 12.5C5.69126 12.5 6.25001 11.94 6.25001 11.25ZM2.50001 3.75H6.25126V5H2.50001V3.75Z" fill="black"/>
</g>
<defs>
<clipPath id="clip0">
<rect width="30" height="30" fill="white"/>
</clipPath>
</defs>
</svg>


