<svg width="39" height="37" viewBox="0 0 39 37" fill="none" xmlns="http://www.w3.org/2000/svg">
<g id="&#236;&#157;&#184;&#234;&#179;&#181;&#235;&#136;&#136;&#235;&#172;&#188; 1">
<path id="Vector" d="M5.60941 35.8438H11.7032C11.8648 35.8438 12.0198 35.7829 12.1341 35.6744C12.2483 35.566 12.3125 35.419 12.3125 35.2656V13.875C12.3136 13.7856 12.2927 13.6971 12.2516 13.6166L10.4844 10.2698V8.09375H11.0938C11.2216 8.09366 11.3462 8.05543 11.4499 7.98446C11.5536 7.91349 11.6311 7.81339 11.6715 7.69832L12.2809 5.96394C12.3017 5.90505 12.3124 5.84337 12.3125 5.78125V0.578125C12.3125 0.424797 12.2483 0.277748 12.1341 0.169329C12.0198 0.0609094 11.8648 0 11.7032 0H5.60941C5.4478 0 5.2928 0.0609094 5.17852 0.169329C5.06424 0.277748 5.00004 0.424797 5.00004 0.578125V5.78125C5.00019 5.84337 5.01088 5.90505 5.03172 5.96394L5.6411 7.69832C5.6815 7.81339 5.75902 7.91349 5.86269 7.98446C5.96637 8.05543 6.09094 8.09366 6.21879 8.09375H6.82816V10.2692L5.06097 13.6166C5.01986 13.6971 4.999 13.7856 5.00004 13.875V35.2656C5.00004 35.419 5.06424 35.566 5.17852 35.6744C5.2928 35.7829 5.4478 35.8438 5.60941 35.8438ZM6.21879 22.3382C6.91757 22.8483 7.77456 23.1249 8.65629 23.1249C9.53802 23.1249 10.395 22.8483 11.0938 22.3382V25.0681C10.395 24.5579 9.53802 24.2813 8.65629 24.2813C7.77456 24.2813 6.91757 24.5579 6.21879 25.0681V22.3382ZM11.0938 20.6391L10.9914 20.7848C10.7352 21.1495 10.388 21.4486 9.9806 21.6555C9.57324 21.8624 9.11834 21.9706 8.65629 21.9706C8.19424 21.9706 7.73934 21.8624 7.33198 21.6555C6.92462 21.4486 6.5774 21.1495 6.32116 20.7848L6.21879 20.6391V16.7656H6.95004C7.78685 16.7662 8.60503 16.5312 9.30101 16.0904C9.7957 15.777 10.3771 15.6097 10.9719 15.6094H11.0938V20.6391ZM6.21879 34.6875V26.7672L6.32116 26.6215C6.5774 26.2567 6.92462 25.9576 7.33198 25.7508C7.73934 25.5439 8.19424 25.4357 8.65629 25.4357C9.11834 25.4357 9.57324 25.5439 9.9806 25.7508C10.388 25.9576 10.7352 26.2567 10.9914 26.6215L11.0938 26.7672V34.6875H6.21879ZM7.20476 6.9375L7.43754 6.49582C7.5507 6.28107 7.72465 6.10047 7.93991 5.97425C8.15517 5.84802 8.40323 5.78116 8.65629 5.78116C8.90935 5.78116 9.15741 5.84802 9.37267 5.97425C9.58793 6.10047 9.76188 6.28107 9.87504 6.49582L10.1078 6.9375H7.20476ZM6.21879 1.15625H11.0938V5.6876L10.9811 6.00903L10.9652 5.97897C10.7509 5.57213 10.4213 5.22996 10.0135 4.99081C9.60567 4.75166 9.13572 4.62499 8.65629 4.62499C8.17686 4.62499 7.7069 4.75166 7.29909 4.99081C6.89128 5.22996 6.56172 5.57213 6.34736 5.97897L6.33152 6.00846L6.21879 5.6876V1.15625ZM7.98598 10.6641C8.027 10.5838 8.04785 10.4955 8.04691 10.4063V8.09375H9.26566V10.4063C9.26463 10.4957 9.28549 10.5842 9.3266 10.6647L11.0938 14.0114V14.4531H10.9719C10.1351 14.4526 9.31693 14.6876 8.62095 15.1284C8.12625 15.4417 7.54485 15.6091 6.95004 15.6094H6.21879V14.0114L7.98598 10.6641Z" fill="black"/>
</g>
</svg>


