<svg width="39" height="38" viewBox="0 0 39 38" fill="none" xmlns="http://www.w3.org/2000/svg">
<g clip-path="url(#clip0)">
<path d="M5.60941 36.0772H11.7032C11.8648 36.0772 12.0198 36.0163 12.1341 35.9078C12.2483 35.7994 12.3125 35.6524 12.3125 35.499V14.1084C12.3136 14.019 12.2927 13.9305 12.2516 13.85L10.4844 10.5032V8.32715H11.0938C11.2216 8.32706 11.3462 8.28883 11.4499 8.21786C11.5536 8.14689 11.6311 8.04679 11.6715 7.93172L12.2809 6.19734C12.3017 6.13845 12.3124 6.07677 12.3125 6.01465V0.811524C12.3125 0.658195 12.2483 0.511147 12.1341 0.402727C12.0198 0.294308 11.8648 0.233398 11.7032 0.233398H5.60941C5.4478 0.233398 5.2928 0.294308 5.17852 0.402727C5.06424 0.511147 5.00004 0.658195 5.00004 0.811524V6.01465C5.00019 6.07677 5.01088 6.13845 5.03172 6.19734L5.6411 7.93172C5.6815 8.04679 5.75902 8.14689 5.86269 8.21786C5.96637 8.28883 6.09094 8.32706 6.21879 8.32715H6.82816V10.5026L5.06097 13.85C5.01986 13.9305 4.999 14.019 5.00004 14.1084V35.499C5.00004 35.6524 5.06424 35.7994 5.17852 35.9078C5.2928 36.0163 5.4478 36.0772 5.60941 36.0772ZM6.21879 22.5716C6.91757 23.0817 7.77456 23.3583 8.65629 23.3583C9.53802 23.3583 10.395 23.0817 11.0938 22.5716V25.3015C10.395 24.7913 9.53802 24.5147 8.65629 24.5147C7.77456 24.5147 6.91757 24.7913 6.21879 25.3015V22.5716ZM11.0938 20.8725L10.9914 21.0182C10.7352 21.3829 10.388 21.682 9.9806 21.8889C9.57324 22.0958 9.11834 22.204 8.65629 22.204C8.19424 22.204 7.73934 22.0958 7.33198 21.8889C6.92462 21.682 6.5774 21.3829 6.32116 21.0182L6.21879 20.8725V16.999H6.95004C7.78685 16.9996 8.60503 16.7646 9.30101 16.3238C9.7957 16.0104 10.3771 15.8431 10.9719 15.8428H11.0938V20.8725ZM6.21879 34.9209V27.0006L6.32116 26.8549C6.5774 26.4901 6.92462 26.191 7.33198 25.9842C7.73934 25.7773 8.19424 25.6691 8.65629 25.6691C9.11834 25.6691 9.57324 25.7773 9.9806 25.9842C10.388 26.191 10.7352 26.4901 10.9914 26.8549L11.0938 27.0006V34.9209H6.21879ZM7.20476 7.1709L7.43754 6.72921C7.5507 6.51447 7.72465 6.33387 7.93991 6.20765C8.15517 6.08142 8.40323 6.01456 8.65629 6.01456C8.90935 6.01456 9.15741 6.08142 9.37267 6.20765C9.58793 6.33387 9.76188 6.51447 9.87504 6.72921L10.1078 7.1709H7.20476ZM6.21879 1.38965H11.0938V5.92099L10.9811 6.24243L10.9652 6.21237C10.7509 5.80552 10.4213 5.46335 10.0135 5.22421C9.60567 4.98506 9.13572 4.85839 8.65629 4.85839C8.17686 4.85839 7.7069 4.98506 7.29909 5.22421C6.89128 5.46335 6.56172 5.80552 6.34736 6.21237L6.33152 6.24185L6.21879 5.92099V1.38965ZM7.98598 10.8975C8.027 10.8172 8.04785 10.7289 8.04691 10.6397V8.32715H9.26566V10.6397C9.26463 10.7291 9.28549 10.8176 9.3266 10.8981L11.0938 14.2448V14.6865H10.9719C10.1351 14.686 9.31693 14.921 8.62095 15.3618C8.12625 15.6751 7.54485 15.8425 6.95004 15.8428H6.21879V14.2448L7.98598 10.8975Z" fill="black"/>
</g>
<defs>
<clipPath id="clip0">
<rect width="39" height="37" fill="white" transform="translate(0 0.233398)"/>
</clipPath>
</defs>
</svg>


