<svg width="30" height="30" viewBox="0 0 30 30" fill="none" xmlns="http://www.w3.org/2000/svg">
<g id="&#234;&#179;&#160;&#235;&#141;&#176;&#234;&#184;&#176; 1" clip-path="url(#clip0)">
<g id="Group">
<path id="Vector" d="M29.4967 18.6895H27.9968V17.4795C27.9968 17.2539 27.8931 17.047 27.7278 16.9429L5.52437 2.94794C4.29996 2.1762 2.79032 2.75174 2.15261 4.23357C2.14828 4.24367 2.14396 4.25377 2.13975 4.26387L1.82353 5.01905C1.70062 5.3126 1.79411 5.67121 2.03403 5.82626L1.79856 6.35996C1.40843 7.24423 1.68443 8.34376 2.41513 8.81596L12.1173 15.0855C12.848 15.5577 13.7566 15.2236 14.1468 14.3394C14.1468 14.3394 14.1468 14.3394 14.1468 14.3393L14.3823 13.8057L21.809 18.605C21.6053 18.9917 21.4973 19.4409 21.4976 19.8996H14.4984V19.2945C14.4975 18.2926 13.8265 17.4807 12.9986 17.4795H1.99977C1.17183 17.4806 0.500932 18.2926 0.499928 19.2945V19.8996C0.223801 19.8996 0 20.1705 0 20.5046V21.7146C0.00156855 23.3845 1.11982 24.7378 2.4997 24.7396H25.4971C26.6846 24.738 27.7078 23.7271 27.9468 22.3196H28.9827C28.864 24.831 28.0011 25.7027 27.2329 26.4771C26.6253 27.0899 25.997 27.7234 25.997 28.9748C25.997 30.209 26.6112 31.2329 27.7732 31.9361C28.2933 32.2443 28.8454 32.4666 29.4144 32.5967V32.5961C29.6862 32.6536 29.9449 32.4335 29.9923 32.1047C30.0398 31.7758 29.858 31.4627 29.5863 31.4053C29.5837 31.4048 29.5812 31.4042 29.5786 31.4038V31.4032C29.5528 31.3979 26.9969 30.8305 26.9969 28.9748C26.9969 28.3192 27.2813 28.0034 27.8729 27.4067C28.769 26.5028 29.9965 25.265 29.9965 21.7146V19.2945C29.9967 18.9604 29.7728 18.6895 29.4967 18.6895ZM28.9968 19.8996V21.1096H27.9968V19.8996H28.9968ZM3.03169 4.81071C3.40595 3.91641 4.30843 3.55864 5.0474 4.01163C5.05255 4.01474 5.05763 4.01793 5.06271 4.0212L26.9759 17.8331C26.9076 18.293 26.6197 18.9561 25.4183 19.227C25.1125 17.9442 24.0053 17.2041 22.9452 17.5742C22.8245 17.6164 22.7073 17.6722 22.5952 17.741L2.93664 5.03766L3.03169 4.81071ZM23.4974 18.6895C24.0496 18.6895 24.4973 19.2313 24.4973 19.8996C24.4973 20.5679 24.0496 21.1096 23.4974 21.1096C22.9452 21.1096 22.4975 20.5679 22.4975 19.8996C22.4981 19.2316 22.9454 18.6903 23.4974 18.6895ZM13.2648 13.7695C13.1348 14.0643 12.8319 14.1756 12.5884 14.0182L2.88613 7.74863C2.64257 7.59123 2.55052 7.22472 2.68059 6.92996L2.91599 6.39626L13.5003 13.2359L13.2648 13.7695ZM1.49985 19.2945C1.50016 18.9605 1.72383 18.6899 1.99977 18.6895H12.9986C13.2746 18.6899 13.4982 18.9606 13.4985 19.2945V19.8996H1.49985V19.2945ZM25.4971 23.5297H2.4997C1.67176 23.5286 1.00086 22.7166 0.999856 21.7146V21.1096H21.7666C22.3183 22.2667 23.5405 22.6636 24.4966 21.996C24.976 21.6613 25.3193 21.101 25.4446 20.4486C26.1231 20.3175 26.6265 20.0767 26.9969 19.7775V21.7146C26.996 22.7166 26.3251 23.5285 25.4971 23.5297Z" fill="black"/>
</g>
</g>
<defs>
<clipPath id="clip0">
<rect width="30" height="30" fill="white"/>
</clipPath>
</defs>
</svg>
