<svg width="30" height="30" viewBox="0 0 30 30" fill="none" xmlns="http://www.w3.org/2000/svg">
<g id="&#237;&#156;&#180;&#236;&#167;&#128; 1" clip-path="url(#clip0)">
<g id="Group">
<g id="Group_2">
<path id="Vector" d="M11.4857 22.7954C11.1623 22.7954 10.9 23.0578 10.9 23.3812C10.9 23.7045 11.1623 23.9669 11.4857 23.9669C11.809 23.9669 12.0714 23.7045 12.0714 23.3812C12.0714 23.0578 11.809 22.7954 11.4857 22.7954Z" fill="black"/>
</g>
</g>
<g id="Group_3">
<g id="Group_4">
<path id="Vector_2" d="M27.0666 11.3524C26.5671 10.354 25.5633 9.73373 24.4471 9.73373H22.1426C23.1781 7.02319 23.7723 3.84636 23.7863 0.883104C23.7874 0.66496 23.6671 0.464453 23.4742 0.362441C22.2869 -0.264921 20.9533 -0.0696282 19.9065 0.884511C19.0661 1.65086 18.0219 1.65086 17.1815 0.884511C15.8945 -0.289237 14.1649 -0.289237 12.8778 0.884511C12.0374 1.65092 10.9932 1.65097 10.1528 0.884511C9.09625 -0.079179 7.70195 -0.264218 6.51426 0.401699C6.32828 0.505937 6.21367 0.703046 6.21502 0.91621C6.23324 3.86851 6.82744 7.03338 7.85875 9.73367H5.55373C4.43747 9.73367 3.43376 10.3539 2.93413 11.3526C0.155151 17.0317 0.0057373 17.025 0.0057373 17.3482V27.0714C0.0057373 28.6862 1.31952 30 2.93436 30H27.0664C28.6813 30 29.9951 28.6862 29.9951 27.0714V17.3482C29.9951 17.0203 29.8316 17.003 27.0666 11.3524ZM7.39199 1.2833C8.06049 1.04101 8.7639 1.2032 9.36343 1.75006C10.6506 2.92398 12.3801 2.92386 13.6672 1.75006C14.5077 0.98371 15.5519 0.983768 16.3922 1.75006C17.6793 2.92398 19.4089 2.92392 20.6959 1.75011C21.2763 1.22101 21.9583 1.05168 22.6097 1.26332C22.5432 4.25488 21.8721 7.43669 20.7498 10.0536C20.2038 11.3281 19.565 12.4258 18.893 13.248H17.8856C18.746 11.7856 19.6334 9.90213 20.2623 8.17702C20.3731 7.87315 20.2166 7.53688 19.9126 7.42614C19.6087 7.3154 19.2725 7.4719 19.1617 7.77588C18.4644 9.68867 17.4417 11.7963 16.5122 13.2481H15.5861V7.97651C15.5861 7.65307 15.3239 7.39081 15.0004 7.39081C14.677 7.39081 14.4147 7.65307 14.4147 7.97651V13.2481H13.4885C12.5591 11.7967 11.5369 9.68908 10.8405 7.77612C10.7298 7.47213 10.3936 7.31545 10.0897 7.42608C9.78578 7.5367 9.62904 7.87286 9.73966 8.17684C10.3677 9.90225 11.2547 11.7857 12.1151 13.2481H11.1079C10.4365 12.4265 9.7979 11.3289 9.25158 10.0535C8.13232 7.44301 7.46113 4.26782 7.39199 1.2833ZM3.9819 11.8766C4.28161 11.2774 4.88395 10.9052 5.55379 10.9052H8.34765C8.74387 11.7764 9.18296 12.5677 9.64796 13.2481H7.97166C7.64822 13.2481 7.3859 13.5104 7.3859 13.8338C7.3859 14.1573 7.64816 14.4196 7.97166 14.4196C10.9412 14.4196 19.0691 14.4196 22.0292 14.4196C22.3526 14.4196 22.6149 14.1573 22.6149 13.8338C22.6149 13.5103 22.3526 13.2481 22.0292 13.2481H20.3531C20.8184 12.5674 21.2577 11.776 21.6537 10.9052H24.4471C25.1169 10.9052 25.7192 11.2774 26.0189 11.8764L28.4617 16.7625H1.53913L3.9819 11.8766ZM28.8237 27.0714C28.8237 28.0403 28.0354 28.8285 27.0665 28.8285H2.93436C1.96546 28.8285 1.1772 28.0403 1.1772 27.0714V17.9339H28.8237V27.0714Z" fill="black"/>
</g>
</g>
<g id="Group_5">
<g id="Group_6">
<path id="Vector_3" d="M20.8573 20.4526H9.14265C8.81921 20.4526 8.55688 20.7149 8.55688 21.0384V25.7242C8.55688 26.0477 8.81915 26.31 9.14265 26.31H20.8573C21.1807 26.31 21.443 26.0477 21.443 25.7242V21.0384C21.443 20.715 21.1808 20.4526 20.8573 20.4526ZM20.2716 25.1385H9.72841V21.6241H20.2716V25.1385Z" fill="black"/>
</g>
</g>
<g id="Group_7">
<g id="Group_8">
<path id="Vector_4" d="M18.5144 22.7954H13.8285C13.5051 22.7954 13.2428 23.0577 13.2428 23.3812C13.2428 23.7046 13.5051 23.9669 13.8285 23.9669H18.5144C18.8378 23.9669 19.1001 23.7046 19.1001 23.3812C19.1001 23.0577 18.8379 22.7954 18.5144 22.7954Z" fill="black"/>
</g>
</g>
</g>
<defs>
<clipPath id="clip0">
<rect width="30" height="30" fill="white"/>
</clipPath>
</defs>
</svg>


