<svg width="30" height="31" viewBox="0 0 30 31" fill="none" xmlns="http://www.w3.org/2000/svg">
<g clip-path="url(#clip0)">
<path d="M11.4856 23.0288C11.1623 23.0288 10.8999 23.2912 10.8999 23.6146C10.8999 23.9379 11.1623 24.2003 11.4856 24.2003C11.8089 24.2003 12.0714 23.9379 12.0714 23.6146C12.0713 23.2912 11.8089 23.0288 11.4856 23.0288Z" fill="black"/>
<path d="M27.0667 11.5858C26.5672 10.5874 25.5635 9.96713 24.4472 9.96713H22.1428C23.1782 7.25659 23.7724 4.07976 23.7864 1.1165C23.7875 0.898359 23.6673 0.697851 23.4744 0.59584C22.287 -0.0315223 20.9534 0.16377 19.9067 1.11791C19.0663 1.88426 18.022 1.88426 17.1816 1.11791C15.8946 -0.0558387 14.1651 -0.0558387 12.8779 1.11791C12.0375 1.88431 10.9933 1.88437 10.1529 1.11791C9.09637 0.154219 7.70207 -0.0308192 6.51438 0.635097C6.32841 0.739336 6.2138 0.936445 6.21514 1.14961C6.23337 4.10191 6.82756 7.26678 7.85887 9.96707H5.55386C4.43759 9.96707 3.43388 10.5873 2.93425 11.586C0.155273 17.2651 0.00585938 17.2584 0.00585938 17.5816V27.3048C0.00585938 28.9196 1.31965 30.2334 2.93449 30.2334H27.0666C28.6814 30.2334 29.9952 28.9196 29.9952 27.3048V17.5816C29.9953 17.2537 29.8317 17.2364 27.0667 11.5858ZM7.39211 1.5167C8.06061 1.27441 8.76403 1.4366 9.36356 1.98345C10.6507 3.15738 12.3802 3.15726 13.6673 1.98345C14.5078 1.21711 15.552 1.21717 16.3923 1.98345C17.6795 3.15738 19.409 3.15732 20.696 1.98351C21.2765 1.45441 21.9584 1.28508 22.6098 1.49672C22.5433 4.48827 21.8722 7.67008 20.7499 10.287C20.2039 11.5615 19.5651 12.6592 18.8931 13.4814H17.8858C18.7461 12.019 19.6336 10.1355 20.2624 8.41041C20.3732 8.10655 20.2167 7.77028 19.9127 7.65954C19.6088 7.54879 19.2726 7.7053 19.1618 8.00928C18.4645 9.92207 17.4418 12.0297 16.5123 13.4815H15.5863V8.20991C15.5863 7.88647 15.324 7.62421 15.0006 7.62421C14.6771 7.62421 14.4149 7.88647 14.4149 8.20991V13.4815H13.4887C12.5592 12.0301 11.537 9.92248 10.8406 8.00952C10.7299 7.70553 10.3937 7.54885 10.0898 7.65948C9.7859 7.7701 9.62916 8.10626 9.73979 8.41024C10.3679 10.1356 11.2548 12.0191 12.1152 13.4815H11.108C10.4366 12.6599 9.79803 11.5623 9.2517 10.2869C8.13244 7.67641 7.46125 4.50122 7.39211 1.5167ZM3.98202 12.11C4.28173 11.5108 4.88407 11.1386 5.55391 11.1386H8.34778C8.74399 12.0098 9.18309 12.8011 9.64809 13.4815H7.97178C7.64834 13.4815 7.38602 13.7438 7.38602 14.0672C7.38602 14.3907 7.64829 14.653 7.97178 14.653C10.9413 14.653 19.0692 14.653 22.0293 14.653C22.3528 14.653 22.615 14.3907 22.615 14.0672C22.615 13.7437 22.3528 13.4815 22.0293 13.4815H20.3532C20.8185 12.8008 21.2578 12.0094 21.6539 11.1386H24.4472C25.117 11.1386 25.7193 11.5108 26.019 12.1098L28.4618 16.9959H1.53925L3.98202 12.11ZM28.8238 27.3048C28.8238 28.2737 28.0355 29.0619 27.0666 29.0619H2.93449C1.96558 29.0619 1.17732 28.2737 1.17732 27.3048V18.1673H28.8238V27.3048Z" fill="black"/>
<path d="M20.8573 20.686H9.14265C8.81921 20.686 8.55688 20.9483 8.55688 21.2718V25.9576C8.55688 26.2811 8.81915 26.5434 9.14265 26.5434H20.8573C21.1807 26.5434 21.443 26.2811 21.443 25.9576V21.2718C21.443 20.9484 21.1808 20.686 20.8573 20.686ZM20.2716 25.3719H9.72841V21.8575H20.2716V25.3719Z" fill="black"/>
<path d="M18.5145 23.0288H13.8286C13.5052 23.0288 13.2429 23.2911 13.2429 23.6146C13.2429 23.938 13.5052 24.2003 13.8286 24.2003H18.5145C18.8379 24.2003 19.1002 23.938 19.1002 23.6146C19.1002 23.2911 18.838 23.0288 18.5145 23.0288Z" fill="black"/>
</g>
<defs>
<clipPath id="clip0">
<rect width="30" height="30" fill="white" transform="translate(0 0.233398)"/>
</clipPath>
</defs>
</svg>


